<?xml version="1.0" standalone="no"?>
<!DOCTYPE svg PUBLIC "-//W3C//DTD SVG 20010904//EN"
 "http://www.w3.org/TR/2001/REC-SVG-20010904/DTD/svg10.dtd">
<svg version="1.0" xmlns="http://www.w3.org/2000/svg"
 width="484.000000pt" height="516.000000pt" viewBox="0 0 484.000000 516.000000"
 preserveAspectRatio="xMidYMid meet">

<g transform="translate(0.000000,516.000000) scale(0.100000,-0.100000)"
fill="#000000" stroke="none">
<path d="M0 3785 c0 -1087 3 -1375 13 -1375 8 0 9 -2 1 -8 -6 -4 -12 -37 -13
-74 -1 -54 2 -69 16 -78 17 -11 17 -11 1 -6 -13 4 -18 0 -18 -15 0 -13 4 -18
12 -13 10 6 10 4 0 -7 -16 -17 -16 -59 1 -59 9 0 9 -2 0 -8 -13 -8 -13 -86 1
-99 5 -5 6 -3 2 5 -4 7 -2 12 6 12 11 0 10 2 0 9 -11 6 -9 9 7 14 24 6 34 -2
21 -17 -6 -8 -1 -12 16 -14 15 -1 23 2 19 8 -4 6 -11 8 -16 5 -5 -3 -6 1 -3 9
3 9 11 13 17 9 6 -3 7 -1 3 5 -4 6 -14 8 -23 5 -10 -4 -14 -2 -9 5 3 6 2 13
-4 17 -5 3 -10 -1 -10 -9 0 -9 -6 -16 -13 -16 -7 0 -13 8 -13 18 0 12 7 18 21
17 11 -1 24 3 28 9 6 7 7 4 3 -6 -3 -11 2 -19 15 -23 10 -4 19 -11 19 -17 0
-6 6 -6 15 2 8 7 22 10 30 6 9 -3 13 -2 10 3 -13 22 19 22 48 0 22 -16 27 -17
17 -5 -12 16 -12 20 8 35 22 16 22 17 2 17 -11 0 -20 -6 -20 -13 0 -7 -6 -13
-13 -13 -8 0 -13 10 -13 21 1 12 -5 23 -12 25 -7 1 -8 0 -2 -3 18 -9 11 -21
-10 -16 -11 3 -20 0 -20 -6 0 -6 8 -8 18 -4 15 6 15 5 3 -10 -8 -10 -16 -15
-19 -12 -3 3 -11 0 -17 -5 -9 -8 -18 -3 -30 17 -13 19 -14 24 -4 16 12 -10 18
-8 33 12 13 18 25 22 48 20 23 -3 29 -1 24 11 -3 9 -2 12 5 9 6 -4 8 -13 5
-21 -3 -8 0 -14 7 -13 38 5 53 -3 69 -39 10 -20 16 -30 14 -22 -2 8 4 23 14
32 16 17 17 17 17 0 0 -9 -4 -20 -9 -23 -5 -3 7 -6 27 -6 22 0 31 3 23 9 -8 5
-9 8 -2 8 7 0 14 10 17 21 4 14 11 20 21 16 17 -7 40 25 28 38 -4 5 -1 5 6 1
8 -5 10 -16 6 -28 -8 -26 15 -42 35 -25 12 10 13 9 6 -2 -5 -10 -4 -12 3 -7
19 11 35 -3 22 -19 -8 -10 -8 -15 2 -21 7 -4 10 -3 5 1 -4 5 1 18 10 29 10 12
14 18 9 14 -14 -12 -36 11 -36 37 0 19 5 22 38 20 32 -1 58 -8 84 -22 4 -2 10
2 14 8 4 7 3 10 -2 7 -5 -3 -18 -2 -29 3 l-20 8 20 1 c11 1 28 3 38 5 15 3 18
-1 13 -21 -7 -26 8 -34 18 -8 3 9 11 12 18 8 7 -4 4 2 -6 15 -11 12 -26 19
-33 16 -8 -2 -11 0 -8 5 3 5 1 19 -6 31 -7 13 -7 19 -1 15 6 -4 16 2 22 11 11
17 11 17 6 1 -3 -10 0 -18 6 -18 7 0 7 -4 -1 -14 -9 -10 -8 -15 3 -19 21 -8
25 1 16 33 -6 22 -5 28 5 24 7 -3 11 -14 8 -25 -3 -11 1 -21 11 -25 9 -3 13
-11 10 -16 -4 -6 -10 -5 -15 3 -6 10 -9 10 -9 2 0 -7 8 -17 18 -22 15 -9 15
-12 2 -21 -12 -8 -12 -10 6 -10 14 0 20 -7 21 -22 1 -43 14 -67 31 -60 15 5
15 3 4 -10 -9 -11 -10 -18 -2 -23 6 -3 8 -11 5 -16 -10 -15 0 -10 25 11 17 15
21 23 13 31 -6 6 -9 18 -6 25 3 8 -1 14 -8 14 -12 0 -11 2 0 9 20 13 41 -9 30
-31 -6 -11 -4 -18 7 -22 11 -4 13 -10 6 -19 -5 -6 -8 -22 -6 -34 2 -13 -1 -23
-6 -23 -6 0 -10 -7 -10 -15 0 -8 -7 -15 -15 -15 -22 0 -18 -21 4 -27 11 -3 22
-15 25 -28 3 -13 15 -27 26 -30 11 -3 20 -10 20 -15 0 -15 -58 23 -69 45 -8
17 -9 16 -7 -10 2 -16 7 -42 11 -57 6 -24 9 -25 21 -13 18 18 18 25 -1 25 -8
0 -15 4 -15 10 0 9 21 5 45 -8 5 -3 29 -7 53 -8 35 -3 43 0 38 11 -3 8 -3 15
0 15 9 0 49 -54 47 -62 -2 -4 4 -5 12 -2 8 4 15 1 15 -5 0 -6 -6 -11 -12 -11
-32 0 71 -54 107 -56 22 -2 42 -3 45 -4 3 0 -2 -5 -10 -10 -11 -7 -7 -10 18
-10 32 0 72 -15 82 -31 3 -4 16 1 29 12 19 16 21 20 7 25 -9 3 -16 13 -16 21
0 7 -11 24 -25 37 -14 13 -25 26 -25 30 0 4 -10 17 -23 29 -25 24 -57 86 -57
111 0 24 -96 209 -157 303 -29 44 -53 86 -53 92 0 6 -4 11 -8 11 -11 0 -76
129 -78 154 -1 10 -6 21 -12 25 -12 7 -84 150 -97 191 -4 13 -14 30 -21 38 -8
7 -14 27 -14 43 0 16 -5 29 -11 29 -5 0 -8 4 -5 8 2 4 -7 46 -20 92 -14 47
-25 93 -25 103 0 9 -5 17 -11 17 -5 0 -8 7 -4 15 3 9 -1 36 -10 61 -8 25 -13
53 -10 62 3 9 2 43 -3 74 -4 33 -4 59 1 60 5 2 11 53 14 113 2 60 7 111 11
114 16 12 11 46 -8 59 -19 13 -19 15 -3 26 10 8 14 18 10 25 -6 9 -12 8 -26
-4 -16 -15 -18 -14 -22 9 -3 13 1 39 9 56 7 18 13 39 13 48 0 9 8 25 18 36 29
33 42 71 30 87 -8 11 -9 10 -4 -5 5 -13 2 -17 -8 -13 -10 4 -17 -3 -21 -24 -4
-16 -11 -29 -17 -29 -5 0 -15 -6 -21 -13 -18 -20 -77 -134 -77 -149 0 -7 -11
-13 -25 -13 -14 0 -25 3 -25 8 0 4 -7 7 -15 7 -8 0 -15 7 -15 16 0 14 -3 14
-15 4 -9 -8 -15 -9 -15 -2 0 6 5 14 10 17 6 4 8 10 5 15 -3 5 -1 11 5 15 6 4
8 9 6 13 -9 14 -20 119 -18 171 1 44 7 62 32 92 16 21 30 40 30 43 0 3 -16 -2
-36 -10 -20 -8 -39 -13 -42 -10 -3 3 -12 -3 -21 -13 -9 -9 -28 -26 -43 -35
-16 -10 -28 -25 -28 -32 0 -8 -5 -14 -11 -14 -7 0 -8 -12 -4 -32 4 -21 3 -28
-3 -20 -16 23 -21 -50 -11 -155 10 -105 34 -203 49 -203 6 0 10 -9 10 -20 0
-11 5 -20 12 -20 11 0 68 -59 68 -70 -1 -21 -19 -28 -58 -20 -37 6 -42 5 -42
-11 0 -13 -5 -16 -16 -12 -13 5 -15 1 -10 -18 6 -24 6 -24 -5 -2 -7 13 -19 25
-29 28 -9 3 -23 18 -31 35 -8 16 -39 57 -69 91 -34 39 -64 86 -79 123 -31 80
-41 125 -30 132 13 8 11 24 -3 21 -27 -5 -7 234 28 344 24 73 53 129 54 101 0
-10 4 -10 16 2 8 9 26 16 40 16 22 0 23 2 12 20 -10 15 -10 22 0 32 9 9 12 8
12 -7 0 -14 8 -8 29 20 24 32 26 41 15 50 -11 8 -11 13 1 29 7 10 18 15 24 11
7 -3 11 2 11 14 0 12 5 21 11 21 7 0 9 9 6 21 -4 16 -3 18 9 8 13 -11 18 -6
15 15 -1 5 7 15 19 23 11 8 18 19 15 24 -4 5 -1 9 4 9 6 0 11 6 11 13 0 8 10
13 23 13 17 -1 22 5 22 25 1 30 51 102 66 94 5 -3 6 1 3 9 -6 16 23 36 43 29
6 -2 14 1 18 6 4 7 -1 8 -12 5 -39 -14 59 66 112 90 17 8 42 24 57 35 15 12
30 21 35 20 22 -4 33 3 33 21 0 13 7 20 20 20 11 0 44 14 73 30 65 37 259 114
309 124 20 3 47 15 61 26 44 35 118 43 302 35 94 -4 204 -6 245 -5 60 1 91 -4
150 -26 41 -15 89 -29 107 -31 17 -2 51 -10 75 -19 88 -32 209 -64 241 -64 35
0 83 -16 134 -43 18 -9 38 -17 45 -17 14 0 44 -15 203 -100 55 -30 105 -59
110 -65 6 -7 48 -37 95 -68 47 -30 121 -85 165 -122 44 -36 114 -91 155 -122
110 -84 206 -187 348 -373 131 -171 187 -236 275 -315 53 -48 97 -91 97 -95 0
-4 20 -27 45 -51 25 -24 45 -49 45 -56 0 -14 48 -73 60 -73 5 0 22 11 38 25
29 24 59 34 47 16 -3 -5 -1 -12 5 -16 5 -3 10 -15 10 -26 0 -11 5 -17 10 -14
7 4 9 -2 4 -19 -5 -23 -3 -26 21 -26 22 0 25 -3 20 -20 -4 -13 -1 -22 9 -26 9
-3 16 -12 16 -18 0 -7 25 -50 55 -96 30 -46 55 -91 55 -100 0 -9 14 -29 31
-46 18 -16 40 -48 51 -71 10 -24 23 -43 29 -43 5 0 19 -19 30 -42 20 -40 55
-73 211 -201 l58 -48 0 1221 0 1220 -2420 0 -2420 0 0 -1375z m405 805 c-3 -5
-10 -10 -16 -10 -5 0 -9 5 -9 10 0 6 7 10 16 10 8 0 12 -4 9 -10z m-154 -143
c-10 -9 -11 -8 -5 6 3 10 9 15 12 12 3 -3 0 -11 -7 -18z m-70 -124 c-12 -20
-14 -14 -5 12 4 9 9 14 11 11 3 -2 0 -13 -6 -23z m-28 -53 c-3 -11 -9 -20 -15
-20 -5 0 -4 9 2 20 6 11 12 20 14 20 2 0 2 -9 -1 -20z m487 -680 c0 -5 -5 -10
-11 -10 -5 0 -7 5 -4 10 3 6 8 10 11 10 2 0 4 -4 4 -10z m-373 -242 c-3 -8 -6
-5 -6 6 -1 11 2 17 5 13 3 -3 4 -12 1 -19z m133 -238 c0 -5 -4 -10 -10 -10 -5
0 -10 5 -10 10 0 6 5 10 10 10 6 0 10 -4 10 -10z m4390 -130 c0 -5 -5 -10 -11
-10 -5 0 -7 5 -4 10 3 6 8 10 11 10 2 0 4 -4 4 -10z m-4265 -90 c3 -5 1 -10
-4 -10 -6 0 -11 5 -11 10 0 6 2 10 4 10 3 0 8 -4 11 -10z m-90 -140 c3 -5 1
-10 -4 -10 -6 0 -11 5 -11 10 0 6 2 10 4 10 3 0 8 -4 11 -10z m95 -30 c0 -5
-2 -10 -4 -10 -3 0 -8 5 -11 10 -3 6 -1 10 4 10 6 0 11 -4 11 -10z m68 -25
c-3 -3 -9 2 -12 12 -6 14 -5 15 5 6 7 -7 10 -15 7 -18z m-390 -100 c-3 -3 -9
2 -12 12 -6 14 -5 15 5 6 7 -7 10 -15 7 -18z m462 5 c0 -5 -4 -10 -9 -10 -6 0
-13 5 -16 10 -3 6 1 10 9 10 9 0 16 -4 16 -10z m0 -40 c0 -5 -4 -10 -9 -10 -6
0 -13 5 -16 10 -3 6 1 10 9 10 9 0 16 -4 16 -10z m-26 -106 c3 -8 2 -12 -4 -9
-6 3 -10 10 -10 16 0 14 7 11 14 -7z m-209 -42 c-3 -3 -11 0 -18 7 -9 10 -8
11 6 5 10 -3 15 -9 12 -12z m115 2 c0 -8 -5 -12 -10 -9 -6 4 -8 11 -5 16 9 14
15 11 15 -7z m-475 -4 c3 -5 1 -10 -4 -10 -6 0 -11 5 -11 10 0 6 2 10 4 10 3
0 8 -4 11 -10z m617 -42 c-3 -12 -7 -17 -10 -10 -2 7 -9 10 -15 6 -7 -3 -3 2
7 10 25 20 25 20 18 -6z m-507 -8 c3 -5 1 -10 -4 -10 -6 0 -11 5 -11 10 0 6 2
10 4 10 3 0 8 -4 11 -10z m306 -18 c-7 -2 -18 1 -23 6 -8 8 -4 9 13 5 13 -4
18 -8 10 -11z m-260 -19 c-12 -20 -14 -14 -5 12 4 9 9 14 11 11 3 -2 0 -13 -6
-23z m79 23 c0 -3 -4 -8 -10 -11 -5 -3 -10 -1 -10 4 0 6 5 11 10 11 6 0 10 -2
10 -4z m-160 -12 c0 -8 -19 -13 -24 -6 -3 5 1 9 9 9 8 0 15 -2 15 -3z m263
-30 c-3 -8 -10 -14 -15 -14 -6 0 -5 6 2 15 12 14 7 19 -13 16 -5 -1 -6 3 -2 9
10 16 35 -8 28 -26z m217 21 c0 -2 -6 -5 -13 -8 -8 -3 -14 1 -14 8 0 7 6 11
14 8 7 -3 13 -6 13 -8z m-599 -18 c-13 -13 -26 -3 -16 12 3 6 11 8 17 5 6 -4
6 -10 -1 -17z m236 5 c9 -6 7 -11 -7 -20 -16 -10 -18 -9 -17 8 1 22 6 24 24
12z m-137 -6 c0 -2 -7 -7 -16 -10 -8 -3 -12 -2 -9 4 6 10 25 14 25 6z m440
-59 c0 -5 -5 -5 -10 -2 -6 4 -10 3 -9 -2 5 -28 -2 -41 -21 -36 -11 3 -20 10
-20 16 0 15 -13 -1 -16 -19 -5 -30 -14 -45 -24 -39 -5 3 -10 1 -10 -6 0 -7 -2
-10 -5 -7 -8 8 6 39 15 33 4 -3 11 2 14 11 4 12 2 15 -9 10 -8 -3 -15 -1 -15
4 0 5 -7 7 -15 4 -8 -4 -15 -1 -15 5 0 6 -4 11 -10 11 -6 0 -6 -9 -1 -22 10
-29 4 -48 -14 -42 -7 3 -23 -9 -35 -26 -17 -23 -25 -28 -31 -19 -9 16 -1 32
12 24 5 -4 9 -1 9 4 0 6 -7 11 -15 11 -8 0 -14 3 -12 8 1 4 -1 7 -5 7 -7 0
-42 44 -44 55 -4 22 -18 39 -28 33 -6 -4 -5 1 3 10 14 18 26 23 16 8 -7 -12
35 -52 47 -45 4 3 8 0 8 -6 0 -7 -9 -9 -22 -5 l-23 6 23 -20 c13 -11 30 -17
38 -14 10 4 17 -2 21 -16 3 -11 9 -18 15 -15 5 3 4 13 -4 22 -11 15 -11 15 3
4 14 -10 18 -10 23 3 3 8 1 15 -5 15 -6 0 -7 5 -4 10 3 6 2 10 -4 10 -5 0 -14
-7 -18 -15 -6 -9 -13 -11 -23 -5 -13 8 -13 11 -1 22 11 11 13 11 6 -1 -5 -9
-3 -12 6 -9 8 3 13 16 12 31 -2 22 0 25 11 14 8 -6 12 -15 9 -19 -2 -5 4 -8
15 -8 10 0 22 -3 26 -7 12 -13 36 -11 36 2 0 7 8 12 18 10 9 -1 23 3 31 9 11
8 13 8 7 -1 -4 -7 -2 -13 3 -13 6 0 12 6 12 13 2 17 1 19 -6 42 -4 12 2 8 14
-10 11 -16 21 -34 21 -38z m-130 33 c8 -15 8 -18 -3 -14 -8 3 -14 11 -14 19 0
20 4 19 17 -5z m143 -7 c-4 -10 -2 -14 4 -10 5 3 10 1 10 -6 0 -7 4 -21 9 -32
7 -18 6 -19 -9 -6 -15 12 -17 12 -11 -4 5 -12 4 -16 -4 -11 -6 3 -9 23 -7 44
3 42 3 42 10 42 2 0 1 -7 -2 -17z m40 0 c-3 -7 -6 -13 -8 -13 -2 0 -5 6 -8 13
-3 8 1 14 8 14 7 0 11 -6 8 -14z m-567 -28 c1 -14 -2 -22 -7 -19 -11 6 -12 44
-1 44 4 0 8 -11 8 -25z m274 19 c0 -8 -19 -13 -24 -6 -3 5 1 9 9 9 8 0 15 -2
15 -3z m-225 -13 c3 -5 0 -13 -6 -17 -7 -4 -9 -3 -5 4 3 5 0 13 -6 15 -9 4
-10 6 -1 6 6 1 14 -3 18 -8z m95 5 c0 -2 -8 -10 -17 -17 -16 -13 -17 -12 -4 4
13 16 21 21 21 13z m425 -16 c-3 -5 -1 -10 5 -10 6 0 8 -5 4 -11 -4 -8 -9 -7
-15 2 -7 12 -3 29 7 29 3 0 2 -4 -1 -10z m-476 -29 c9 -15 6 -17 -19 -16 -16
1 -27 -2 -24 -6 2 -4 -1 -11 -7 -15 -11 -7 -29 12 -29 31 0 6 4 4 9 -4 6 -9
11 -10 15 -2 4 6 17 11 29 12 12 0 16 3 10 6 -7 2 -13 9 -13 14 0 14 18 2 29
-20z m58 16 c0 -8 -6 -14 -14 -14 -9 0 -10 4 -2 14 6 7 12 13 14 13 1 0 2 -6
2 -13z m27 -12 c-4 -9 0 -15 9 -15 8 0 17 -6 20 -14 8 -20 -23 -14 -35 7 -5
10 -6 22 -3 27 9 15 15 12 9 -5z m-187 -23 c-1 -21 -24 -25 -31 -6 -3 9 1 11
11 7 11 -4 14 -2 9 5 -4 7 -3 12 3 12 5 0 9 -8 8 -18z m248 -1 c3 -5 2 -12 -3
-15 -5 -3 -9 1 -9 9 0 17 3 19 12 6z m20 -31 c-3 -5 -12 -10 -18 -10 -7 0 -6
4 3 10 19 12 23 12 15 0z m585 -219 c0 -22 -26 -35 -36 -19 -4 7 -3 8 4 4 11
-6 16 6 13 27 0 4 4 7 9 7 6 0 10 -9 10 -19z m57 -47 c-3 -3 -12 -4 -19 -1 -8
3 -5 6 6 6 11 1 17 -2 13 -5z"/>
<path d="M520 2226 c7 -7 13 -7 20 0 6 6 3 10 -10 10 -13 0 -16 -4 -10 -10z"/>
<path d="M620 4780 c-9 -6 -10 -10 -3 -10 6 0 15 5 18 10 8 12 4 12 -15 0z"/>
<path d="M2518 4575 c-58 -39 -77 -102 -75 -247 1 -64 5 -119 8 -122 3 -3 39
4 80 15 55 16 80 28 97 50 14 18 33 29 48 29 33 0 30 -17 -7 -49 -45 -37 -90
-82 -122 -120 -31 -38 -29 -66 7 -75 12 -3 27 -16 33 -28 6 -13 33 -36 60 -50
42 -23 55 -26 84 -18 19 5 50 12 70 15 64 10 109 79 109 166 -1 108 -82 285
-181 392 -54 59 -56 60 -115 64 -49 2 -65 -1 -96 -22z"/>
<path d="M135 4199 c-4 -6 -5 -12 -2 -15 2 -3 7 2 10 11 7 17 1 20 -8 4z"/>
<path d="M105 4170 c-3 -5 -1 -10 4 -10 6 0 11 5 11 10 0 6 -2 10 -4 10 -3 0
-8 -4 -11 -10z"/>
<path d="M1197 4166 c-8 -21 24 -91 34 -74 6 9 13 9 34 0 22 -10 25 -10 23 4
-2 10 3 19 11 22 9 3 11 -1 6 -17 -5 -16 -2 -21 12 -21 15 0 15 -2 3 -10 -12
-7 -10 -12 10 -30 13 -11 28 -19 34 -17 20 6 18 45 -3 64 -12 10 -29 25 -40
34 -10 9 -23 24 -28 34 -14 24 -88 33 -96 11z"/>
<path d="M827 4118 c-26 -41 -29 -81 -7 -107 30 -35 45 -15 45 60 0 68 -14 86
-38 47z"/>
<path d="M3470 3909 c0 -12 15 -45 34 -73 18 -28 36 -60 40 -71 5 -18 14 -21
71 -20 61 0 65 1 65 23 0 36 -28 82 -58 93 -18 7 -28 7 -30 0 -6 -18 -42 -12
-48 7 -15 45 -29 62 -51 62 -17 0 -23 -6 -23 -21z"/>
<path d="M55 3810 c-3 -5 -1 -10 4 -10 6 0 11 5 11 10 0 6 -2 10 -4 10 -3 0
-8 -4 -11 -10z"/>
<path d="M3675 3701 c-16 -10 -29 -25 -29 -33 1 -13 -6 -14 -39 -6 -23 5 -48
14 -56 21 -12 10 -13 9 -7 -1 4 -7 1 -24 -9 -39 -14 -21 -15 -30 -5 -52 6 -14
11 -28 10 -30 -4 -11 52 -27 89 -25 46 2 62 15 54 44 -3 11 2 19 16 23 14 3
19 10 15 21 -3 9 -1 16 5 16 7 0 14 -7 17 -15 9 -21 61 -19 73 3 7 14 2 26
-24 55 -37 41 -63 46 -110 18z"/>
<path d="M271 3564 c0 -11 3 -14 6 -6 3 7 2 16 -1 19 -3 4 -6 -2 -5 -13z"/>
<path d="M4182 3508 c-15 -15 -15 -28 -1 -28 11 0 39 24 39 34 0 11 -26 6 -38
-6z"/>
<path d="M3673 3428 c-33 -11 -46 -38 -18 -38 8 0 15 -4 15 -10 0 -5 -9 -10
-19 -10 -28 0 -35 -17 -12 -29 25 -14 34 -14 26 -1 -3 6 1 10 9 10 9 0 16 -4
16 -10 0 -5 11 -10 25 -10 19 0 23 4 18 17 -5 12 -2 15 10 10 9 -3 17 -3 17 1
0 4 3 16 6 28 6 24 -19 55 -44 53 -9 -1 -32 -6 -49 -11z"/>
<path d="M3997 3354 c-4 -4 -17 -7 -29 -8 -18 -1 -24 -8 -26 -31 -4 -30 17
-55 47 -55 12 0 13 2 4 8 -9 6 0 14 27 26 41 18 49 33 28 54 -13 13 -41 16
-51 6z"/>
<path d="M3750 3129 c0 -5 9 -9 20 -9 11 0 20 2 20 4 0 2 -9 6 -20 9 -11 3
-20 1 -20 -4z"/>
<path d="M1956 2968 c-3 -7 -7 -31 -10 -52 -3 -22 -12 -43 -20 -48 -7 -4 -16
-18 -20 -31 -6 -27 -82 -91 -96 -82 -6 3 -10 1 -10 -5 0 -12 -27 -7 -71 14
-31 16 -60 6 -106 -34 -43 -38 -69 -44 -154 -36 -61 5 -71 4 -89 -14 -19 -19
-20 -29 -15 -208 3 -103 10 -207 15 -232 43 -203 53 -318 37 -407 l-7 -43 39
0 c72 0 129 70 150 185 18 96 15 116 -21 147 -18 16 -39 26 -45 23 -7 -2 -13
0 -13 5 0 6 5 10 11 10 7 0 9 9 6 21 -3 12 0 22 9 26 11 4 12 9 4 18 -8 9 -7
17 4 28 8 8 12 17 9 21 -6 5 20 10 39 7 4 0 5 6 2 14 -5 11 1 15 24 15 61 0
75 -17 96 -115 10 -44 14 -50 39 -53 37 -4 82 41 97 99 6 24 33 96 60 159 57
136 64 160 84 266 8 44 24 104 35 133 30 75 27 107 -13 147 -35 35 -64 44 -70
22z m-201 -325 c-2 -8 2 -25 11 -39 9 -13 12 -24 6 -24 -6 0 -13 6 -15 13 -3
7 -6 5 -6 -5 -1 -9 6 -21 15 -26 8 -5 21 -20 28 -33 7 -13 18 -23 24 -21 13 2
16 -17 5 -45 -6 -16 -8 -15 -14 7 -3 14 -6 -8 -6 -50 0 -73 -13 -120 -33 -120
-6 0 -10 9 -10 20 0 12 -7 20 -16 20 -11 0 -15 6 -11 20 3 11 1 23 -4 26 -5 3
-9 21 -9 40 0 19 -4 34 -9 34 -5 0 -7 9 -4 20 3 11 1 20 -5 20 -11 0 -82 68
-82 79 0 11 57 41 64 34 3 -3 6 0 6 8 1 10 5 8 15 -5 15 -19 15 -19 15 1 0 12
-5 25 -10 28 -7 4 -6 13 1 26 10 20 11 20 30 3 11 -10 17 -24 14 -31z"/>
<path d="M520 2158 c0 -6 3 -8 7 -5 3 4 12 2 20 -4 10 -9 11 -15 2 -26 -10
-11 -9 -12 5 -7 20 8 20 18 0 38 -18 19 -34 21 -34 4z"/>
<path d="M394 2129 c-4 -8 -3 -9 4 -5 7 4 12 3 12 -2 0 -6 7 -12 15 -16 10 -3
15 1 15 11 0 9 -3 13 -7 10 -3 -4 -12 -2 -19 4 -8 7 -14 6 -20 -2z"/>
<path d="M654 2118 l-19 -23 25 20 c14 11 27 21 29 22 2 2 0 3 -6 3 -5 0 -18
-10 -29 -22z"/>
<path d="M242 2121 c-11 -6 -9 -9 6 -13 15 -4 19 -2 15 8 -6 16 -4 16 -21 5z"/>
<path d="M610 2121 c0 -6 4 -12 8 -15 5 -3 9 1 9 9 0 8 -4 15 -9 15 -4 0 -8
-4 -8 -9z"/>
<path d="M707 2105 c-4 -8 -3 -16 1 -19 4 -3 9 4 9 15 2 23 -3 25 -10 4z"/>
<path d="M131 2074 c0 -11 3 -14 6 -6 3 7 2 16 -1 19 -3 4 -6 -2 -5 -13z"/>
<path d="M556 2082 c-3 -5 1 -9 9 -9 8 0 12 4 9 9 -3 4 -7 8 -9 8 -2 0 -6 -4
-9 -8z"/>
<path d="M499 2063 c-13 -16 -12 -17 4 -4 9 7 17 15 17 17 0 8 -8 3 -21 -13z"/>
<path d="M277 2059 c7 -7 15 -10 18 -7 3 3 -2 9 -12 12 -14 6 -15 5 -6 -5z"/>
<path d="M0 2020 c0 -5 5 -10 11 -10 5 0 7 5 4 10 -3 6 -8 10 -11 10 -2 0 -4
-4 -4 -10z"/>
<path d="M797 2023 c-10 -9 -9 -33 1 -33 4 0 8 9 8 20 0 23 0 22 -9 13z"/>
<path d="M0 945 l0 -945 555 0 c338 0 555 4 555 9 0 5 -5 22 -11 38 -34 89
-82 285 -94 388 -14 120 -16 166 -20 455 -6 368 -11 477 -26 510 -1 3 -3 16
-4 30 -1 24 -9 49 -24 80 -4 8 -6 27 -6 43 1 15 -3 27 -7 27 -4 0 -8 5 -8 12
0 22 -43 149 -48 143 -3 -3 -24 6 -48 20 -46 27 -74 31 -90 15 -8 -8 -19 -7
-36 0 -20 10 -31 9 -56 -4 -30 -15 -35 -15 -92 4 -32 11 -79 20 -103 20 -23 0
-68 9 -100 20 -31 11 -80 20 -109 20 -33 0 -85 12 -138 30 -46 17 -85 30 -87
30 -2 0 -3 -425 -3 -945z"/>
<path d="M851 1764 c0 -11 3 -14 6 -6 3 7 2 16 -1 19 -3 4 -6 -2 -5 -13z"/>
<path d="M920 1596 c0 -2 7 -7 16 -10 8 -3 12 -2 9 4 -6 10 -25 14 -25 6z"/>
</g>
</svg>
